<mxfile host="app.diagrams.net" modified="2023-02-08T06:01:38.844Z" agent="5.0 (Windows NT 10.0; Win64; x64) AppleWebKit/537.36 (KHTML, like Gecko) Chrome/109.0.0.0 Safari/537.36 Edg/109.0.1518.78" etag="0CFuXZEl5OQmRIt73Nn6" version="20.8.18" type="github">
  <diagram id="R2lEEEUBdFMjLlhIrx00" name="Question 2">
    <mxGraphModel dx="1156" dy="1737" grid="1" gridSize="10" guides="1" tooltips="1" connect="1" arrows="1" fold="1" page="1" pageScale="1" pageWidth="850" pageHeight="1100" math="0" shadow="0" extFonts="Permanent Marker^https://fonts.googleapis.com/css?family=Permanent+Marker">
      <root>
        <mxCell id="0" />
        <mxCell id="1" parent="0" />
        <mxCell id="CKT0J3wuCYP9sG-c2fwP-2" value="Vendeur" style="whiteSpace=wrap;html=1;align=center;" parent="1" vertex="1">
          <mxGeometry x="400" y="330" width="100" height="40" as="geometry" />
        </mxCell>
        <mxCell id="CKT0J3wuCYP9sG-c2fwP-11" value="Voiture" style="whiteSpace=wrap;html=1;align=center;" parent="1" vertex="1">
          <mxGeometry x="640" y="190" width="100" height="40" as="geometry" />
        </mxCell>
        <mxCell id="CKT0J3wuCYP9sG-c2fwP-16" value="Vente" style="shape=rhombus;perimeter=rhombusPerimeter;whiteSpace=wrap;html=1;align=center;" parent="1" vertex="1">
          <mxGeometry x="630" y="320" width="120" height="60" as="geometry" />
        </mxCell>
        <mxCell id="CKT0J3wuCYP9sG-c2fwP-18" value="Client" style="whiteSpace=wrap;html=1;align=center;" parent="1" vertex="1">
          <mxGeometry x="880" y="330" width="100" height="40" as="geometry" />
        </mxCell>
        <mxCell id="CKT0J3wuCYP9sG-c2fwP-19" value="" style="endArrow=none;dashed=1;html=1;rounded=0;exitX=-0.024;exitY=0.397;exitDx=0;exitDy=0;entryX=0.966;entryY=0.432;entryDx=0;entryDy=0;entryPerimeter=0;exitPerimeter=0;" parent="1" source="CKT0J3wuCYP9sG-c2fwP-18" target="CKT0J3wuCYP9sG-c2fwP-16" edge="1">
          <mxGeometry width="50" height="50" relative="1" as="geometry">
            <mxPoint x="420" y="440" as="sourcePoint" />
            <mxPoint x="750" y="340" as="targetPoint" />
            <Array as="points" />
          </mxGeometry>
        </mxCell>
        <mxCell id="CKT0J3wuCYP9sG-c2fwP-20" value="" style="endArrow=none;html=1;rounded=0;entryX=1;entryY=0.5;entryDx=0;entryDy=0;exitX=0;exitY=0.5;exitDx=0;exitDy=0;" parent="1" edge="1" target="CKT0J3wuCYP9sG-c2fwP-16" source="CKT0J3wuCYP9sG-c2fwP-18">
          <mxGeometry width="50" height="50" relative="1" as="geometry">
            <mxPoint x="840" y="340" as="sourcePoint" />
            <mxPoint x="690" y="380" as="targetPoint" />
            <Array as="points" />
          </mxGeometry>
        </mxCell>
        <mxCell id="CKT0J3wuCYP9sG-c2fwP-21" value="" style="endArrow=none;html=1;rounded=0;entryX=0.5;entryY=1;entryDx=0;entryDy=0;" parent="1" source="CKT0J3wuCYP9sG-c2fwP-16" target="CKT0J3wuCYP9sG-c2fwP-11" edge="1">
          <mxGeometry width="50" height="50" relative="1" as="geometry">
            <mxPoint x="420" y="440" as="sourcePoint" />
            <mxPoint x="470" y="390" as="targetPoint" />
          </mxGeometry>
        </mxCell>
        <mxCell id="CKT0J3wuCYP9sG-c2fwP-27" value="réviser" style="shape=rhombus;perimeter=rhombusPerimeter;whiteSpace=wrap;html=1;align=center;" parent="1" vertex="1">
          <mxGeometry x="880" y="180" width="120" height="60" as="geometry" />
        </mxCell>
        <mxCell id="CKT0J3wuCYP9sG-c2fwP-28" value="" style="endArrow=none;html=1;rounded=0;exitX=0.5;exitY=1;exitDx=0;exitDy=0;entryX=0.604;entryY=-0.051;entryDx=0;entryDy=0;entryPerimeter=0;" parent="1" source="CKT0J3wuCYP9sG-c2fwP-27" target="CKT0J3wuCYP9sG-c2fwP-18" edge="1">
          <mxGeometry width="50" height="50" relative="1" as="geometry">
            <mxPoint x="420" y="440" as="sourcePoint" />
            <mxPoint x="900" y="330" as="targetPoint" />
          </mxGeometry>
        </mxCell>
        <mxCell id="CKT0J3wuCYP9sG-c2fwP-29" value="" style="endArrow=none;dashed=1;html=1;rounded=0;exitX=0.463;exitY=0.995;exitDx=0;exitDy=0;exitPerimeter=0;entryX=0.556;entryY=-0.068;entryDx=0;entryDy=0;entryPerimeter=0;" parent="1" source="CKT0J3wuCYP9sG-c2fwP-27" target="CKT0J3wuCYP9sG-c2fwP-18" edge="1">
          <mxGeometry width="50" height="50" relative="1" as="geometry">
            <mxPoint x="420" y="440" as="sourcePoint" />
            <mxPoint x="640" y="480" as="targetPoint" />
          </mxGeometry>
        </mxCell>
        <mxCell id="CKT0J3wuCYP9sG-c2fwP-32" value="Entretien" style="text;html=1;align=center;verticalAlign=middle;resizable=0;points=[];autosize=1;strokeColor=none;fillColor=none;" parent="1" vertex="1">
          <mxGeometry x="775" y="160" width="70" height="30" as="geometry" />
        </mxCell>
        <mxCell id="CKT0J3wuCYP9sG-c2fwP-33" value="Réparation" style="text;html=1;align=center;verticalAlign=middle;resizable=0;points=[];autosize=1;strokeColor=none;fillColor=none;" parent="1" vertex="1">
          <mxGeometry x="770" y="240" width="80" height="30" as="geometry" />
        </mxCell>
        <mxCell id="WAp2GSnLnGI5yMCY9LL8-2" value="" style="endArrow=none;html=1;rounded=0;exitX=0;exitY=0;exitDx=0;exitDy=0;entryX=1.011;entryY=0.139;entryDx=0;entryDy=0;entryPerimeter=0;" edge="1" parent="1" source="CKT0J3wuCYP9sG-c2fwP-27" target="CKT0J3wuCYP9sG-c2fwP-11">
          <mxGeometry width="50" height="50" relative="1" as="geometry">
            <mxPoint x="610" y="310" as="sourcePoint" />
            <mxPoint x="740" y="235" as="targetPoint" />
          </mxGeometry>
        </mxCell>
        <mxCell id="WAp2GSnLnGI5yMCY9LL8-3" value="" style="endArrow=none;dashed=1;html=1;rounded=0;entryX=0.333;entryY=0.167;entryDx=0;entryDy=0;exitX=1;exitY=0;exitDx=0;exitDy=0;entryPerimeter=0;" edge="1" parent="1" source="CKT0J3wuCYP9sG-c2fwP-11" target="CKT0J3wuCYP9sG-c2fwP-27">
          <mxGeometry width="50" height="50" relative="1" as="geometry">
            <mxPoint x="610" y="310" as="sourcePoint" />
            <mxPoint x="660" y="260" as="targetPoint" />
            <Array as="points" />
          </mxGeometry>
        </mxCell>
        <mxCell id="WAp2GSnLnGI5yMCY9LL8-5" value="" style="endArrow=none;dashed=1;html=1;rounded=0;entryX=0.181;entryY=0.673;entryDx=0;entryDy=0;exitX=1;exitY=0.75;exitDx=0;exitDy=0;entryPerimeter=0;" edge="1" parent="1" source="CKT0J3wuCYP9sG-c2fwP-11" target="CKT0J3wuCYP9sG-c2fwP-27">
          <mxGeometry width="50" height="50" relative="1" as="geometry">
            <mxPoint x="610" y="310" as="sourcePoint" />
            <mxPoint x="660" y="260" as="targetPoint" />
          </mxGeometry>
        </mxCell>
        <mxCell id="WAp2GSnLnGI5yMCY9LL8-6" value="" style="endArrow=none;html=1;rounded=0;entryX=0;entryY=1;entryDx=0;entryDy=0;" edge="1" parent="1" target="CKT0J3wuCYP9sG-c2fwP-27">
          <mxGeometry width="50" height="50" relative="1" as="geometry">
            <mxPoint x="740" y="225" as="sourcePoint" />
            <mxPoint x="660" y="260" as="targetPoint" />
          </mxGeometry>
        </mxCell>
        <mxCell id="WAp2GSnLnGI5yMCY9LL8-8" value="Concessionnaire" style="whiteSpace=wrap;html=1;align=center;" vertex="1" parent="1">
          <mxGeometry x="640" y="-90" width="100" height="40" as="geometry" />
        </mxCell>
        <mxCell id="WAp2GSnLnGI5yMCY9LL8-9" value="travaille pour" style="shape=rhombus;perimeter=rhombusPerimeter;whiteSpace=wrap;html=1;align=center;" vertex="1" parent="1">
          <mxGeometry x="390" y="-40" width="120" height="60" as="geometry" />
        </mxCell>
        <mxCell id="WAp2GSnLnGI5yMCY9LL8-10" value="" style="endArrow=none;html=1;rounded=0;exitX=0.432;exitY=0.012;exitDx=0;exitDy=0;entryX=0.447;entryY=0.967;entryDx=0;entryDy=0;entryPerimeter=0;exitPerimeter=0;" edge="1" parent="1" source="CKT0J3wuCYP9sG-c2fwP-2" target="WAp2GSnLnGI5yMCY9LL8-9">
          <mxGeometry width="50" height="50" relative="1" as="geometry">
            <mxPoint x="610" y="230" as="sourcePoint" />
            <mxPoint x="440" y="10" as="targetPoint" />
          </mxGeometry>
        </mxCell>
        <mxCell id="WAp2GSnLnGI5yMCY9LL8-11" value="" style="endArrow=none;html=1;rounded=0;entryX=0;entryY=0.5;entryDx=0;entryDy=0;exitX=1;exitY=0.5;exitDx=0;exitDy=0;" edge="1" parent="1" source="WAp2GSnLnGI5yMCY9LL8-9" target="WAp2GSnLnGI5yMCY9LL8-8">
          <mxGeometry width="50" height="50" relative="1" as="geometry">
            <mxPoint x="610" y="230" as="sourcePoint" />
            <mxPoint x="660" y="180" as="targetPoint" />
          </mxGeometry>
        </mxCell>
        <mxCell id="WAp2GSnLnGI5yMCY9LL8-12" value="" style="endArrow=none;dashed=1;html=1;rounded=0;" edge="1" parent="1" target="CKT0J3wuCYP9sG-c2fwP-2">
          <mxGeometry width="50" height="50" relative="1" as="geometry">
            <mxPoint x="450" y="20" as="sourcePoint" />
            <mxPoint x="640" y="107" as="targetPoint" />
          </mxGeometry>
        </mxCell>
        <mxCell id="WAp2GSnLnGI5yMCY9LL8-15" value="facture" style="ellipse;whiteSpace=wrap;html=1;align=center;fontStyle=4;" vertex="1" parent="1">
          <mxGeometry x="640" y="410" width="100" height="40" as="geometry" />
        </mxCell>
        <mxCell id="WAp2GSnLnGI5yMCY9LL8-16" value="" style="endArrow=none;html=1;rounded=0;entryX=0.5;entryY=1;entryDx=0;entryDy=0;" edge="1" parent="1" source="WAp2GSnLnGI5yMCY9LL8-15" target="CKT0J3wuCYP9sG-c2fwP-16">
          <mxGeometry width="50" height="50" relative="1" as="geometry">
            <mxPoint x="340" y="280" as="sourcePoint" />
            <mxPoint x="340" y="250" as="targetPoint" />
          </mxGeometry>
        </mxCell>
        <mxCell id="WAp2GSnLnGI5yMCY9LL8-19" value="" style="endArrow=none;dashed=1;html=1;rounded=0;entryX=0.096;entryY=0.383;entryDx=0;entryDy=0;entryPerimeter=0;" edge="1" parent="1" target="CKT0J3wuCYP9sG-c2fwP-16">
          <mxGeometry width="50" height="50" relative="1" as="geometry">
            <mxPoint x="500" y="343" as="sourcePoint" />
            <mxPoint x="690" y="190" as="targetPoint" />
          </mxGeometry>
        </mxCell>
        <mxCell id="WAp2GSnLnGI5yMCY9LL8-21" value="" style="endArrow=none;html=1;rounded=0;exitX=1;exitY=0.5;exitDx=0;exitDy=0;" edge="1" parent="1" source="CKT0J3wuCYP9sG-c2fwP-2" target="CKT0J3wuCYP9sG-c2fwP-16">
          <mxGeometry width="50" height="50" relative="1" as="geometry">
            <mxPoint x="510" y="360" as="sourcePoint" />
            <mxPoint x="690" y="170" as="targetPoint" />
          </mxGeometry>
        </mxCell>
        <mxCell id="WAp2GSnLnGI5yMCY9LL8-23" value="ticket" style="ellipse;shape=doubleEllipse;margin=3;whiteSpace=wrap;html=1;align=center;" vertex="1" parent="1">
          <mxGeometry x="1040" y="190" width="100" height="40" as="geometry" />
        </mxCell>
        <mxCell id="WAp2GSnLnGI5yMCY9LL8-33" value="numéro de série" style="ellipse;whiteSpace=wrap;html=1;align=center;fontStyle=4;" vertex="1" parent="1">
          <mxGeometry x="480" y="190" width="100" height="40" as="geometry" />
        </mxCell>
        <mxCell id="WAp2GSnLnGI5yMCY9LL8-34" value="" style="endArrow=none;html=1;rounded=0;exitX=1;exitY=0.5;exitDx=0;exitDy=0;entryX=0;entryY=0.5;entryDx=0;entryDy=0;" edge="1" parent="1" source="WAp2GSnLnGI5yMCY9LL8-33" target="CKT0J3wuCYP9sG-c2fwP-11">
          <mxGeometry width="50" height="50" relative="1" as="geometry">
            <mxPoint x="640" y="220" as="sourcePoint" />
            <mxPoint x="690" y="170" as="targetPoint" />
          </mxGeometry>
        </mxCell>
        <mxCell id="WAp2GSnLnGI5yMCY9LL8-35" value="Mécanicien" style="whiteSpace=wrap;html=1;align=center;" vertex="1" parent="1">
          <mxGeometry x="890" y="-120" width="100" height="40" as="geometry" />
        </mxCell>
        <mxCell id="WAp2GSnLnGI5yMCY9LL8-36" value="" style="endArrow=none;html=1;rounded=0;entryX=0.558;entryY=0.992;entryDx=0;entryDy=0;entryPerimeter=0;exitX=0.555;exitY=0.036;exitDx=0;exitDy=0;exitPerimeter=0;" edge="1" parent="1" source="CKT0J3wuCYP9sG-c2fwP-27" target="WAp2GSnLnGI5yMCY9LL8-35">
          <mxGeometry width="50" height="50" relative="1" as="geometry">
            <mxPoint x="970" y="220" as="sourcePoint" />
            <mxPoint x="1020" y="170" as="targetPoint" />
          </mxGeometry>
        </mxCell>
        <mxCell id="WAp2GSnLnGI5yMCY9LL8-37" value="" style="endArrow=none;dashed=1;html=1;rounded=0;entryX=0.5;entryY=1;entryDx=0;entryDy=0;exitX=0.5;exitY=0;exitDx=0;exitDy=0;" edge="1" parent="1" source="CKT0J3wuCYP9sG-c2fwP-27" target="WAp2GSnLnGI5yMCY9LL8-35">
          <mxGeometry width="50" height="50" relative="1" as="geometry">
            <mxPoint x="970" y="220" as="sourcePoint" />
            <mxPoint x="1020" y="170" as="targetPoint" />
          </mxGeometry>
        </mxCell>
        <mxCell id="WAp2GSnLnGI5yMCY9LL8-41" value="" style="endArrow=none;html=1;rounded=0;entryX=0;entryY=0.5;entryDx=0;entryDy=0;" edge="1" parent="1" target="WAp2GSnLnGI5yMCY9LL8-23">
          <mxGeometry width="50" height="50" relative="1" as="geometry">
            <mxPoint x="1000" y="210" as="sourcePoint" />
            <mxPoint x="780" y="170" as="targetPoint" />
          </mxGeometry>
        </mxCell>
        <mxCell id="WAp2GSnLnGI5yMCY9LL8-42" value="pièces" style="ellipse;whiteSpace=wrap;html=1;align=center;dashed=1;" vertex="1" parent="1">
          <mxGeometry x="1050" y="130" width="100" height="40" as="geometry" />
        </mxCell>
        <mxCell id="WAp2GSnLnGI5yMCY9LL8-43" value="" style="endArrow=none;html=1;rounded=0;entryX=0;entryY=0.5;entryDx=0;entryDy=0;exitX=1;exitY=0;exitDx=0;exitDy=0;" edge="1" parent="1" source="CKT0J3wuCYP9sG-c2fwP-27" target="WAp2GSnLnGI5yMCY9LL8-42">
          <mxGeometry width="50" height="50" relative="1" as="geometry">
            <mxPoint x="730" y="220" as="sourcePoint" />
            <mxPoint x="780" y="170" as="targetPoint" />
          </mxGeometry>
        </mxCell>
        <mxCell id="WAp2GSnLnGI5yMCY9LL8-44" value="historique d&#39;entretien" style="shape=ext;margin=3;double=1;whiteSpace=wrap;html=1;align=center;" vertex="1" parent="1">
          <mxGeometry x="780" y="40" width="100" height="40" as="geometry" />
        </mxCell>
        <mxCell id="WAp2GSnLnGI5yMCY9LL8-45" value="Concerver" style="shape=rhombus;double=1;perimeter=rhombusPerimeter;whiteSpace=wrap;html=1;align=center;" vertex="1" parent="1">
          <mxGeometry x="630" y="30" width="120" height="60" as="geometry" />
        </mxCell>
        <mxCell id="WAp2GSnLnGI5yMCY9LL8-47" value="" style="endArrow=none;dashed=1;html=1;rounded=0;entryX=0.415;entryY=0.992;entryDx=0;entryDy=0;entryPerimeter=0;exitX=0.436;exitY=0.036;exitDx=0;exitDy=0;exitPerimeter=0;" edge="1" parent="1" source="WAp2GSnLnGI5yMCY9LL8-45" target="WAp2GSnLnGI5yMCY9LL8-8">
          <mxGeometry width="50" height="50" relative="1" as="geometry">
            <mxPoint x="730" y="150" as="sourcePoint" />
            <mxPoint x="780" y="100" as="targetPoint" />
          </mxGeometry>
        </mxCell>
        <mxCell id="WAp2GSnLnGI5yMCY9LL8-48" value="" style="endArrow=none;html=1;rounded=0;entryX=0.5;entryY=1;entryDx=0;entryDy=0;exitX=0.5;exitY=0;exitDx=0;exitDy=0;" edge="1" parent="1" source="WAp2GSnLnGI5yMCY9LL8-45" target="WAp2GSnLnGI5yMCY9LL8-8">
          <mxGeometry width="50" height="50" relative="1" as="geometry">
            <mxPoint x="730" y="150" as="sourcePoint" />
            <mxPoint x="780" y="100" as="targetPoint" />
          </mxGeometry>
        </mxCell>
        <mxCell id="WAp2GSnLnGI5yMCY9LL8-49" value="" style="endArrow=none;html=1;rounded=0;exitX=1;exitY=0.5;exitDx=0;exitDy=0;entryX=0;entryY=0.5;entryDx=0;entryDy=0;" edge="1" parent="1" source="WAp2GSnLnGI5yMCY9LL8-45" target="WAp2GSnLnGI5yMCY9LL8-44">
          <mxGeometry width="50" height="50" relative="1" as="geometry">
            <mxPoint x="730" y="60" as="sourcePoint" />
            <mxPoint x="780" y="10" as="targetPoint" />
          </mxGeometry>
        </mxCell>
        <mxCell id="WAp2GSnLnGI5yMCY9LL8-50" value="&lt;span style=&quot;border-bottom: 1px dotted&quot;&gt;numéro de dossier&lt;/span&gt;" style="ellipse;whiteSpace=wrap;html=1;align=center;" vertex="1" parent="1">
          <mxGeometry x="780" y="-60" width="100" height="40" as="geometry" />
        </mxCell>
        <mxCell id="WAp2GSnLnGI5yMCY9LL8-51" value="" style="endArrow=none;html=1;rounded=0;exitX=0.5;exitY=1;exitDx=0;exitDy=0;entryX=0.5;entryY=0;entryDx=0;entryDy=0;" edge="1" parent="1" source="WAp2GSnLnGI5yMCY9LL8-50" target="WAp2GSnLnGI5yMCY9LL8-44">
          <mxGeometry width="50" height="50" relative="1" as="geometry">
            <mxPoint x="730" y="150" as="sourcePoint" />
            <mxPoint x="780" y="100" as="targetPoint" />
          </mxGeometry>
        </mxCell>
        <mxCell id="WAp2GSnLnGI5yMCY9LL8-52" value="" style="endArrow=none;html=1;rounded=0;entryX=0.554;entryY=0.994;entryDx=0;entryDy=0;entryPerimeter=0;" edge="1" parent="1" target="WAp2GSnLnGI5yMCY9LL8-45">
          <mxGeometry width="50" height="50" relative="1" as="geometry">
            <mxPoint x="696" y="190" as="sourcePoint" />
            <mxPoint x="780" y="90" as="targetPoint" />
          </mxGeometry>
        </mxCell>
        <mxCell id="WAp2GSnLnGI5yMCY9LL8-54" value="" style="endArrow=none;dashed=1;html=1;rounded=0;entryX=0.5;entryY=1;entryDx=0;entryDy=0;exitX=0.5;exitY=0;exitDx=0;exitDy=0;" edge="1" parent="1" source="CKT0J3wuCYP9sG-c2fwP-11" target="WAp2GSnLnGI5yMCY9LL8-45">
          <mxGeometry width="50" height="50" relative="1" as="geometry">
            <mxPoint x="730" y="140" as="sourcePoint" />
            <mxPoint x="780" y="90" as="targetPoint" />
          </mxGeometry>
        </mxCell>
      </root>
    </mxGraphModel>
  </diagram>
</mxfile>
